{"title":"Mask.Maker.2010.HDTV.AC3-5.1.XviD-SiC","uid":7242829,"size":1517392022,"categoryP":"video","categoryS":"movies","magnet":"?xt=urn:btih:13157c82b32f6ca1913cc33a8af64468e7e08d25&amp;dn=Mask.Maker.2010.HDTV.AC3-5.1.XviD-SiC&amp;tr=udp%3A%2F%2Ftracker.openbittorrent.com%3A80&amp;tr=udp%3A%2F%2Fopen.demonii.com%3A1337&amp;tr=udp%3A%2F%2Ftracker.coppersurfer.tk%3A6969&amp;tr=udp%3A%2F%2Fexodus.desync.com%3A6969","seeders":0,"leechers":1,"uploader":"maximersk","files":4,"time":1336178202,"description":"Mask.Maker.2010.HDTV.AC3-5.1.XviD-SiC\n\n\n\n\n\nMask.Maker.2010.HDTV.AC3-5.1.XviD-SiC\nAKA Maskerade (original title)\n\nIMDB Link: &lt;a href=&quot;\nhttp://www.imdb.com/title/tt1577055/&quot; rel=&quot;nofollow&quot; target=&quot;_NEW&quot;&gt;\nhttp://www.imdb.com/title/tt1577055/&lt;/a&gt;\n\nDescription:\nWhen a young deformed boy witnesses his mothers death, he comes back to take revenge on anyone\n\nwho dares enter his property.\n\n\nGeneral\nComplete name : Mask.Maker.2010.HDTV.AC3-5.1.XviD-SiC.avi\nFormat : AVI\nFormat/Info : Audio Video Interleave\nFile size : 1.40 GiB\nDuration : 1h 30mn\nOverall bit rate : 2 198 Kbps\n\nVideo\nID : 0\nFormat : MPEG-4 Visual\nFormat profile : Advanced Simple@L5\nFormat settings, BVOP : 1\nFormat settings, QPel : No\nFormat settings, GMC : No warppoints\nFormat settings, Matrix : Default (H.263)\nCodec ID : XVID\nCodec ID/Hint : XviD\nDuration : 1h 30mn\nBit rate : 1 799 Kbps\nWidth : 720 pixels\nHeight : 304 pixels\nDisplay aspect ratio : 2.35:1\nFrame rate : 59.940 fps\nColor space : YUV\nChroma subsampling : 4:2:0\nBit depth : 8 bits\nScan type : Progressive\nCompression mode : Lossy\nBits/(Pixel*Frame) : 0.137\nStream size : 1.14 GiB (82%)\nWriting library : XviD 1.2.1 (UTC 2008-12-04)\n\nAudio\nID : 1\nFormat : AC-3\nFormat/Info : Audio Coding 3\nMode extension : CM (complete main)\nFormat settings, Endianness : Big\nCodec ID : 2000\nDuration : 1h 30mn\nBit rate mode : Constant\nBit rate : 384 Kbps\nChannel(s) : 6 channels\nChannel positions : Front: L C R, Side: L R, LFE\nSampling rate : 48.0 KHz\nBit depth : 16 bits\nCompression mode : Lossy\nStream size : 250 MiB (17%)\nAlignment : Aligned on interleaves\nInterleave, duration : 64 ms (3.84 video frames)\nInterleave, preload duration : 192 ms\nTitle : Mask.Maker.2010.HDTV.AC3-5.1-SiC.dga PID 1100 3_2ch\n\n48KHz 384Kbps DELAY -18ms","torrent":{"xt":"urn:btih:13157c82b32f6ca1913cc33a8af64468e7e08d25","amp;dn":"Mask.Maker.2010.HDTV.AC3-5.1.XviD-SiC","amp;tr":["udp%3A%2F%2Ftracker.openbittorrent.com%3A80","udp%3A%2F%2Fopen.demonii.com%3A1337","udp%3A%2F%2Ftracker.coppersurfer.tk%3A6969","udp%3A%2F%2Fexodus.desync.com%3A6969"],"infoHash":"13157c82b32f6ca1913cc33a8af64468e7e08d25","infoHashBuffer":{"type":"Buffer","data":[19,21,124,130,179,47,108,161,145,60,195,58,138,246,68,104,231,224,141,37]},"announce":[],"urlList":[]}}